<svg width="16" height="16" viewBox="0 0 16 16" fill="none" xmlns="http://www.w3.org/2000/svg">
<path fill-rule="evenodd" clip-rule="evenodd" d="M0.745605 7.18429C0.745605 3.48113 3.75404 0.5 7.43964 0.5C11.1252 0.5 14.1337 3.48113 14.1337 7.18429C14.1337 8.76243 13.5873 10.2094 12.675 11.3505L15.5082 14.1383C15.8185 14.4436 15.8255 14.9457 15.5238 15.2598C15.2222 15.5738 14.7261 15.5809 14.4158 15.2756L11.5526 12.4582C10.4162 13.3427 8.98766 13.8686 7.43964 13.8686C3.75404 13.8686 0.745605 10.8874 0.745605 7.18429ZM7.43964 2.0861C4.59688 2.0861 2.31277 4.37989 2.31277 7.18429C2.31277 9.98869 4.59688 12.2825 7.43964 12.2825C10.2824 12.2825 12.5665 9.98869 12.5665 7.18429C12.5665 4.37989 10.2824 2.0861 7.43964 2.0861Z" fill="#F9F9F9"/>
</svg>
